# xmcd CD database file
#
# Track frame offsets:
#	150
#	15810
#	34160
#	54622
#	75265
#	94702
#	112265
#	129892
#	148202
#	163835
#	189882
#
# Disc length: 2759 seconds
#
# Revision: 0
# Processed by: cddbd v1.5.1PL0 Copyright (c) Steve Scherf et al.
# Submitted via: CDex 1.51
#
DISCID=840ac50b
DTITLE=真行寺恵里 - Monkey on my back
DYEAR=2000
DGENRE=Rock
TTITLE0=Monley on my back
TTITLE1=LOVE ＆ GLORY
TTITLE2=SIREN
TTITLE3=Ramble Fish
TTITLE4=絶体絶命
TTITLE5=Dive in your arms
TTITLE6=ゆびきりしよう
TTITLE7=ヒステリックに愛し合おう
TTITLE8=THA LAST AND ONLY ONE
TTITLE9=CAN'T BE ANGEL
TTITLE10=シークレットトラック
EXTD=YEAR: 2000
EXTT0=
EXTT1=
EXTT2=
EXTT3=
EXTT4=
EXTT5=
EXTT6=
EXTT7=
EXTT8=
EXTT9=
EXTT10=
PLAYORDER=
